HIERARCHY
ROOT joint_Root
{
	OFFSET 0.0 0.0 0.0
	CHANNELS 6 Xposition Yposition Zposition Zrotation Xrotation Yrotation 
	JOINT Hips
	{
		OFFSET 4.5925 91.4895 -427.239
		CHANNELS 6 Xposition Yposition Zposition Zrotation Xrotation Yrotation 
		JOINT Spine
		{
			OFFSET 15.7357 0.0 0.0
			CHANNELS 6 Xposition Yposition Zposition Zrotation Xrotation Yrotation 
			JOINT Chest
			{
				OFFSET 8.98455 -0.406207 0.0
				CHANNELS 6 Xposition Yposition Zposition Zrotation Xrotation Yrotation 
				JOINT Neck
				{
					OFFSET 16.3773 0.0 0.0
					CHANNELS 6 Xposition Yposition Zposition Zrotation Xrotation Yrotation 
					JOINT Head
					{
						OFFSET 6.45672 0.0 0.0
						CHANNELS 6 Xposition Yposition Zposition Zrotation Xrotation Yrotation 
						End Site
						{
							OFFSET 0.0 0.0 0.0
						}
					}
				}
				JOINT Shoulder_L
				{
					OFFSET 12.9942 -0.242716 4.98039
					CHANNELS 6 Xposition Yposition Zposition Zrotation Xrotation Yrotation 
					JOINT UpperArm_L
					{
						OFFSET 5.34809 0.0 0.0
						CHANNELS 6 Xposition Yposition Zposition Zrotation Xrotation Yrotation 
						JOINT LowerArm_L
						{
							OFFSET 24.3286 1.87007e-05 0.0
							CHANNELS 6 Xposition Yposition Zposition Zrotation Xrotation Yrotation 
							JOINT Hand_L
							{
								OFFSET 22.2916 0.0 0.0
								CHANNELS 6 Xposition Yposition Zposition Zrotation Xrotation Yrotation 
								End Site
								{
									OFFSET 0.0 0.0 0.0
								}
							}
						}
					}
				}
				JOINT Shoulder_R
				{
					OFFSET 12.9945 -0.242716 -4.98039
					CHANNELS 6 Xposition Yposition Zposition Zrotation Xrotation Yrotation 
					JOINT UpperArm_R
					{
						OFFSET -5.34813 0.0 0.0
						CHANNELS 6 Xposition Yposition Zposition Zrotation Xrotation Yrotation 
						JOINT LowerArm_R
						{
							OFFSET -24.3289 0.000322201 0.0
							CHANNELS 6 Xposition Yposition Zposition Zrotation Xrotation Yrotation 
							JOINT Hand_R
							{
								OFFSET -22.2915 -0.000108084 0.0
								CHANNELS 6 Xposition Yposition Zposition Zrotation Xrotation Yrotation 
								End Site
								{
									OFFSET 0.0 0.0 0.0
								}
							}
						}
					}
				}
			}
		}
		JOINT UpperLeg_L
		{
			OFFSET -2.19248 -6.46944 0.0
			CHANNELS 6 Xposition Yposition Zposition Zrotation Xrotation Yrotation 
			JOINT LowerLeg_L
			{
				OFFSET 39.0811 0.0 -1.23785e-05
				CHANNELS 6 Xposition Yposition Zposition Zrotation Xrotation Yrotation 
				JOINT Foot_L
				{
					OFFSET 40.9854 0.0 -1.26872e-05
					CHANNELS 6 Xposition Yposition Zposition Zrotation Xrotation Yrotation 
					JOINT Toes_L
					{
						OFFSET 11.7543 0.0 0.0
						CHANNELS 6 Xposition Yposition Zposition Zrotation Xrotation Yrotation 
						End Site
						{
							OFFSET 0.0 0.0 0.0
						}
					}
				}
			}
		}
		JOINT UpperLeg_R
		{
			OFFSET -2.19251 6.46944 0.0
			CHANNELS 6 Xposition Yposition Zposition Zrotation Xrotation Yrotation 
			JOINT LowerLeg_R
			{
				OFFSET -39.0811 -0.00228153 -0.0401928
				CHANNELS 6 Xposition Yposition Zposition Zrotation Xrotation Yrotation 
				JOINT Foot_R
				{
					OFFSET -40.9854 0.0 0.0
					CHANNELS 6 Xposition Yposition Zposition Zrotation Xrotation Yrotation 
					JOINT Toes_R
					{
						OFFSET -11.7543 0.0 0.0
						CHANNELS 6 Xposition Yposition Zposition Zrotation Xrotation Yrotation 
						End Site
						{
							OFFSET 0.0 0.0 0.0
						}
					}
				}
			}
		}
	}
}
MOTION
Frames:	8
Frame Time:	0.0333333
0.000000 0.000000 0.000000 0.000000 0.000000 -0.000000 -1.135670 90.146100 -6.995930 88.954600 -3.490810 10.889800 15.735700 0.000005 -0.000001 89.587200 76.336700 -90.226500 8.984550 -0.406207 -0.000000 19.558800 -0.258123 -1.237720 16.377300 -0.000001 -0.000001 13.978100 -2.284870 1.257080 6.456720 -0.000001 -0.000000 -9.521950 -1.897350 1.116110 12.994200 -0.242716 4.980390 -88.695500 -3.701870 -70.572600 5.348090 -0.000007 -0.000001 -74.460800 -8.592810 -80.654000 24.328600 0.000019 0.000005 53.174200 -19.011600 -103.708000 22.291600 -0.000001 0.000005 15.013600 4.819220 10.952500 12.994500 -0.242716 -4.980390 90.100500 -0.441926 -77.184400 -5.348130 -0.000001 -0.000004 -68.571000 -7.282320 -77.551100 -24.328900 0.000322 -0.000009 29.394600 -11.425400 -109.373000 -22.291500 -0.000108 -0.000004 30.598000 5.244860 1.567950 -2.192480 -6.469440 -0.000000 -174.044000 -12.257700 -6.687790 39.081100 -0.000007 -0.000012 -0.184250 0.255887 35.756000 40.985400 -0.000006 -0.000013 -0.396064 3.590530 -67.815000 11.754300 -0.000000 0.000003 -0.000090 -0.000943 -16.613800 -2.192510 6.469440 -0.000001 177.347000 17.750000 174.134000 -39.081100 -0.002282 -0.040193 -0.064780 0.096514 35.194700 -40.985400 0.000008 0.000006 6.379740 10.702500 -69.128500 -11.754300 -0.000006 -0.000006 -0.002841 -0.038785 -18.150400
0.000000 0.000000 0.000000 0.000000 0.000000 -0.000000 -1.134820 90.147000 -7.050510 88.944800 -3.473350 10.928400 15.735700 0.000005 -0.000001 89.595300 76.282100 -90.233000 8.984550 -0.406207 -0.000000 19.668200 -0.255465 -1.234700 16.377300 -0.000001 -0.000001 14.390600 -2.330740 1.284150 6.456720 -0.000001 -0.000000 -9.620540 -1.969180 1.034670 12.994200 -0.242716 4.980390 -88.663800 -3.775630 -70.495200 5.348090 -0.000007 -0.000001 -74.535300 -8.509340 -80.884700 24.328600 0.000019 0.000005 53.162400 -18.987800 -103.698000 22.291600 -0.000001 0.000005 15.161300 4.822930 10.881900 12.994500 -0.242716 -4.980390 90.130200 -0.569334 -77.114900 -5.348130 -0.000001 -0.000004 -68.684500 -7.171360 -77.715600 -24.328900 0.000322 -0.000009 29.368500 -11.411400 -109.371000 -22.291500 -0.000108 -0.000004 30.806500 5.244590 1.575110 -2.192480 -6.469440 -0.000000 -174.043000 -12.239300 -6.689970 39.081100 -0.000007 -0.000012 -0.181204 0.251633 35.758400 40.985400 -0.000006 -0.000013 -0.387272 3.584510 -67.779900 11.754300 -0.000000 0.000003 -0.000092 -0.000957 -16.614300 -2.192510 6.469440 -0.000001 177.371000 17.744600 174.132000 -39.081100 -0.002282 -0.040193 -0.058604 0.087734 35.202300 -40.985400 0.000008 0.000006 6.506140 10.660600 -69.123300 -11.754300 -0.000006 -0.000006 -0.002815 -0.038493 -18.138500
0.000000 0.000000 0.000000 0.000000 0.000000 -0.000000 -1.122470 90.141200 -7.112910 88.943900 -3.487590 10.951900 15.735700 0.000005 -0.000001 89.619300 76.230000 -90.272400 8.984550 -0.406207 -0.000000 19.772300 -0.247083 -1.267150 16.377300 -0.000001 -0.000001 14.790000 -2.360130 1.300820 6.456720 -0.000001 -0.000000 -9.646090 -2.112050 1.063780 12.994200 -0.242716 4.980390 -88.631200 -3.848880 -70.405400 5.348090 -0.000007 -0.000001 -74.573300 -8.406120 -81.089600 24.328600 0.000019 0.000005 53.116600 -19.003500 -103.731000 22.291600 -0.000001 0.000005 14.980300 4.821830 10.902600 12.994500 -0.242716 -4.980390 90.147000 -0.641050 -77.086300 -5.348130 -0.000001 -0.000004 -68.742100 -7.083180 -77.833000 -24.328900 0.000322 -0.000009 29.262900 -11.407300 -109.442000 -22.291500 -0.000108 -0.000004 31.104300 5.243340 1.607980 -2.192480 -6.469440 -0.000000 -174.033000 -12.277900 -6.723560 39.081100 -0.000007 -0.000012 -0.184085 0.255378 35.785700 40.985400 -0.000006 -0.000013 -0.369762 3.626270 -67.748500 11.754300 -0.000000 0.000003 -0.000083 -0.000875 -16.611200 -2.192510 6.469440 -0.000001 177.370000 17.702600 174.094000 -39.081100 -0.002282 -0.040193 -0.062876 0.093721 35.221800 -40.985400 0.000008 0.000006 6.427430 10.676400 -69.066400 -11.754300 -0.000006 -0.000006 -0.002801 -0.038332 -18.131900
0.000000 0.000000 0.000000 0.000000 0.000000 -0.000000 -1.106750 90.139600 -7.183040 88.944900 -3.505590 11.001900 15.735700 0.000005 -0.000001 89.665600 76.162500 -90.329900 8.984550 -0.406207 -0.000000 19.907600 -0.227947 -1.292660 16.377300 -0.000001 -0.000001 15.134000 -2.403310 1.321300 6.456720 -0.000001 -0.000000 -9.667330 -2.218820 1.092170 12.994200 -0.242716 4.980390 -88.595600 -3.939430 -70.360900 5.348090 -0.000007 -0.000001 -74.596100 -8.322780 -81.227900 24.328600 0.000019 0.000005 53.219500 -19.075800 -103.730000 22.291600 -0.000001 0.000005 15.210100 4.825110 10.840800 12.994500 -0.242716 -4.980390 90.156000 -0.677336 -77.027500 -5.348130 -0.000001 -0.000004 -68.783500 -6.996840 -77.976800 -24.328900 0.000322 -0.000009 29.236800 -11.439200 -109.511000 -22.291500 -0.000108 -0.000004 31.179900 5.243210 1.611250 -2.192480 -6.469440 -0.000000 -174.042000 -12.330100 -6.727120 39.081100 -0.000007 -0.000012 -0.179300 0.248633 35.797400 40.985400 -0.000006 -0.000013 -0.341761 3.632950 -67.707300 11.754300 -0.000000 0.000003 -0.000088 -0.000919 -16.612900 -2.192510 6.469440 -0.000001 177.340000 17.757900 174.098000 -39.081100 -0.002282 -0.040193 -0.065772 0.097836 35.218400 -40.985400 0.000008 0.000006 6.345520 10.752200 -68.996100 -11.754300 -0.000006 -0.000006 -0.002855 -0.038951 -18.157100
0.000000 0.000000 0.000000 0.000000 0.000000 -0.000000 -1.083390 90.139500 -7.263820 88.926300 -3.527630 10.995200 15.735700 0.000005 -0.000001 89.695300 76.111000 -90.360900 8.984550 -0.406207 -0.000000 20.010600 -0.215189 -1.297510 16.377300 -0.000001 -0.000001 15.302500 -2.424900 1.302470 6.456720 -0.000001 -0.000000 -9.606930 -2.271260 1.107310 12.994200 -0.242716 4.980390 -88.575500 -3.988580 -70.327100 5.348090 -0.000007 -0.000001 -74.640100 -8.286450 -81.274900 24.328600 0.000019 0.000005 52.962100 -19.133200 -103.892000 22.291600 -0.000001 0.000005 15.712900 4.844830 10.461100 12.994500 -0.242716 -4.980390 90.163700 -0.708148 -76.980900 -5.348130 -0.000001 -0.000004 -68.789000 -6.914130 -78.096500 -24.328900 0.000322 -0.000009 29.311700 -11.513800 -109.571000 -22.291500 -0.000108 -0.000004 31.240900 5.240500 1.682280 -2.192480 -6.469440 -0.000000 -174.042000 -12.329500 -6.789940 39.081100 -0.000007 -0.000012 -0.181873 0.252081 35.810300 40.985400 -0.000006 -0.000013 -0.323557 3.641920 -67.667100 11.754300 -0.000000 0.000003 -0.000087 -0.000912 -16.612600 -2.192510 6.469440 -0.000001 177.371000 17.765100 174.023000 -39.081100 -0.002282 -0.040193 -0.065193 0.097012 35.219300 -40.985400 0.000008 0.000006 6.401130 10.766300 -68.942600 -11.754300 -0.000006 -0.000006 -0.002895 -0.039408 -18.175700
0.000000 0.000000 0.000000 0.000000 0.000000 -0.000000 -1.056920 90.136900 -7.349740 88.920300 -3.581170 10.958800 15.735700 0.000005 -0.000001 89.698200 76.073200 -90.366700 8.984550 -0.406207 -0.000000 20.086300 -0.214920 -1.303270 16.377300 -0.000001 -0.000001 15.409500 -2.371030 1.284040 6.456720 -0.000001 -0.000000 -9.665110 -2.218930 1.071800 12.994200 -0.242716 4.980390 -88.576500 -3.979070 -70.297600 5.348090 -0.000007 -0.000001 -74.718100 -8.297580 -81.272400 24.328600 0.000019 0.000005 52.837600 -19.264600 -104.041000 22.291600 -0.000001 0.000005 15.996600 4.849610 10.368700 12.994500 -0.242716 -4.980390 90.180100 -0.779863 -76.995000 -5.348130 -0.000001 -0.000004 -68.793000 -6.879730 -78.183300 -24.328900 0.000322 -0.000009 29.346200 -11.580000 -109.648000 -22.291500 -0.000108 -0.000004 31.264000 5.238690 1.729460 -2.192480 -6.469440 -0.000000 -174.066000 -12.365800 -6.908330 39.081100 -0.000007 -0.000012 -0.179500 0.248599 35.831400 40.985400 -0.000006 -0.000013 -0.309541 3.606820 -67.608000 11.754300 -0.000000 0.000003 -0.000088 -0.000924 -16.613100 -2.192510 6.469440 -0.000001 177.393000 17.727100 173.911000 -39.081100 -0.002282 -0.040193 -0.069981 0.103790 35.220600 -40.985400 0.000008 0.000006 6.304960 10.796200 -68.852200 -11.754300 -0.000006 -0.000006 -0.002817 -0.038517 -18.139500
0.000000 0.000000 0.000000 0.000000 0.000000 -0.000000 -1.024650 90.143500 -7.423230 88.905000 -3.641040 10.961400 15.735700 0.000005 -0.000001 89.748500 76.027200 -90.418200 8.984550 -0.406207 -0.000000 20.178500 -0.192014 -1.309430 16.377300 -0.000001 -0.000001 15.489400 -2.302100 1.249480 6.456720 -0.000001 -0.000000 -9.841100 -2.152050 1.118470 12.994200 -0.242716 4.980390 -88.556900 -4.034320 -70.299100 5.348090 -0.000007 -0.000001 -74.865900 -8.271770 -81.201100 24.328600 0.000019 0.000005 52.744800 -19.359000 -104.150000 22.291600 -0.000001 0.000005 16.582300 4.859630 10.173800 12.994500 -0.242716 -4.980390 90.185500 -0.802820 -76.988800 -5.348130 -0.000001 -0.000004 -68.757300 -6.872770 -78.268500 -24.328900 0.000322 -0.000009 29.341700 -11.583100 -109.656000 -22.291500 -0.000108 -0.000004 31.306400 5.237690 1.755820 -2.192480 -6.469440 -0.000000 -174.062000 -12.443100 -6.931880 39.081100 -0.000007 -0.000012 -0.179611 0.248916 35.813500 40.985400 -0.000006 -0.000013 -0.274959 3.634630 -67.562700 11.754300 -0.000000 0.000003 -0.000091 -0.000947 -16.613900 -2.192510 6.469440 -0.000001 177.395000 17.732300 173.874000 -39.081100 -0.002282 -0.040193 -0.069922 0.103865 35.179300 -40.985400 0.000008 0.000006 6.285170 10.903700 -68.769900 -11.754300 -0.000006 -0.000006 -0.002940 -0.039918 -18.196500
0.000000 0.000000 0.000000 0.000000 0.000000 -0.000000 -0.993050 90.154300 -7.497530 88.894700 -3.690260 10.921500 15.735700 0.000005 -0.000001 89.779800 76.005600 -90.453300 8.984550 -0.406207 -0.000000 20.222000 -0.177952 -1.319760 16.377300 -0.000001 -0.000001 15.476400 -2.233700 1.232960 6.456720 -0.000001 -0.000000 -9.973000 -2.096640 1.185590 12.994200 -0.242716 4.980390 -88.534800 -4.097860 -70.305800 5.348090 -0.000007 -0.000001 -75.052000 -8.246830 -81.102700 24.328600 0.000019 0.000005 52.745700 -19.408900 -104.183000 22.291600 -0.000001 0.000005 16.993500 4.864090 10.086800 12.994500 -0.242716 -4.980390 90.195000 -0.844216 -76.994100 -5.348130 -0.000001 -0.000004 -68.733300 -6.882760 -78.276400 -24.328900 0.000322 -0.000009 29.502100 -11.626700 -109.605000 -22.291500 -0.000108 -0.000004 31.580900 5.237870 1.750830 -2.192480 -6.469440 -0.000000 -174.098000 -12.477700 -7.015370 39.081100 -0.000007 -0.000012 -0.174755 0.242507 35.777500 40.985400 -0.000006 -0.000013 -0.258922 3.568250 -67.487000 11.754300 -0.000000 0.000003 -0.000087 -0.000912 -16.612700 -2.192510 6.469440 -0.000001 177.413000 17.751800 173.801000 -39.081100 -0.002282 -0.040193 -0.070908 0.105513 35.115600 -40.985400 0.000008 0.000006 6.209570 10.968300 -68.659900 -11.754300 -0.000006 -0.000006 -0.002906 -0.039529 -18.180700
